<?xml version="1.0" standalone="no"?>
<!DOCTYPE svg PUBLIC "-//W3C//DTD SVG 20010904//EN"
 "http://www.w3.org/TR/2001/REC-SVG-20010904/DTD/svg10.dtd">
<svg version="1.0" xmlns="http://www.w3.org/2000/svg"
 width="642.000000pt" height="342.000000pt" viewBox="0 0 642.000000 342.000000"
 preserveAspectRatio="xMidYMid meet">

<g transform="translate(0.000000,342.000000) scale(0.100000,-0.100000)"
fill="#000000" stroke="none">
<path d="M2520 3290 c-18 -18 -20 -33 -20 -145 0 -112 2 -127 20 -145 20 -20
33 -20 649 -20 759 0 681 -19 681 166 0 111 -2 126 -20 144 -20 20 -33 20
-655 20 -622 0 -635 0 -655 -20z m780 -141 c0 -23 4 -29 21 -29 18 0 21 5 17
30 -3 17 -1 30 4 30 15 0 9 -68 -7 -74 -26 -10 -45 5 -45 35 0 19 -5 29 -15
29 -10 0 -15 -10 -15 -30 0 -16 -4 -30 -10 -30 -5 0 -10 14 -10 30 0 17 -6 31
-12 31 -7 1 1 4 17 8 42 10 55 3 55 -30z m240 20 c0 -4 -7 -6 -15 -3 -22 9
-18 -5 6 -25 19 -15 19 -18 6 -30 -12 -9 -21 -10 -34 -2 -16 9 -15 10 7 11
l25 0 -25 19 c-20 16 -22 22 -11 34 12 16 41 13 41 -4z m-723 -23 c2 -19 -2
-38 -7 -41 -15 -9 -29 37 -18 58 14 26 23 20 25 -17z m43 25 c0 -17 -18 -21
-24 -6 -3 9 0 15 9 15 8 0 15 -4 15 -9z m35 -1 c-19 -7 -19 -8 -2 -15 13 -5
15 -11 7 -20 -8 -10 -7 -14 7 -18 12 -3 8 -5 -9 -6 -25 -1 -28 2 -28 34 0 30
3 35 23 34 21 0 21 -1 2 -9z m73 -2 c12 16 13 15 6 -3 -3 -11 -6 -28 -6 -37 0
-10 -3 -18 -7 -18 -5 0 -11 8 -14 18 -2 9 -8 26 -11 37 -6 18 -6 18 5 3 12
-15 14 -15 27 0z m101 -25 c-1 -21 -3 -30 -6 -20 -5 18 -6 18 -24 1 -18 -17
-19 -16 -19 19 0 33 3 37 25 37 22 0 25 -4 24 -37z m59 30 c-21 -5 -24 -23 -5
-24 10 0 10 -2 0 -6 -18 -7 -16 -21 5 -26 11 -3 7 -5 -10 -6 -24 -1 -26 2 -25
34 1 31 4 35 26 34 17 -1 20 -3 9 -6z m81 -24 c6 -18 11 -33 11 -34 0 -1 -13
0 -30 3 -20 3 -30 0 -30 -9 0 -7 -3 -10 -6 -6 -9 9 19 77 32 77 7 0 17 -14 23
-31z m203 -4 c4 -35 -5 -47 -16 -22 -5 10 -7 10 -12 0 -11 -25 -20 -13 -16 22
3 25 9 35 22 35 13 0 19 -10 22 -35z m48 25 l-25 -7 25 -11 c24 -10 24 -11 3
-11 -13 -1 -23 -5 -23 -11 0 -5 10 -10 23 -10 20 -1 20 -2 4 -11 -25 -15 -37
-3 -37 37 0 31 3 34 28 33 l27 -1 -25 -8z m-611 -59 c-15 -5 -22 6 -14 19 6 9
10 9 16 -1 5 -8 4 -15 -2 -18z"/>
<path d="M3040 3160 c0 -5 5 -10 10 -10 6 0 10 5 10 10 0 6 -4 10 -10 10 -5 0
-10 -4 -10 -10z"/>
<path d="M3176 3145 c-3 -8 -1 -15 4 -15 13 0 22 18 11 24 -5 3 -11 -1 -15 -9z"/>
<path d="M3380 3160 c0 -5 5 -10 10 -10 6 0 10 5 10 10 0 6 -4 10 -10 10 -5 0
-10 -4 -10 -10z"/>
<path d="M4928 3063 c7 -3 16 -2 19 1 4 3 -2 6 -13 5 -11 0 -14 -3 -6 -6z"/>
<path d="M4973 3063 c9 -2 23 -2 30 0 6 3 -1 5 -18 5 -16 0 -22 -2 -12 -5z"/>
<path d="M390 2811 c-8 -6 -18 -7 -24 -4 -5 3 -6 2 -3 -4 3 -5 2 -27 -4 -47
-7 -26 -7 -41 0 -50 13 -15 2 -58 -13 -50 -6 3 0 -4 14 -16 l25 -22 3 36 c3
33 42 93 42 65 0 -6 6 -9 13 -6 15 6 20 -48 6 -74 -7 -15 -6 -17 6 -13 8 4 15
11 15 18 2 42 14 95 27 115 15 23 14 26 -7 43 -33 27 -40 22 -28 -18 5 -20 8
-37 6 -39 -2 -2 -19 0 -38 5 -19 4 -28 8 -20 9 12 1 12 3 2 10 -11 7 -10 10 3
15 9 3 22 3 28 -1 7 -4 8 0 4 11 -4 10 -7 20 -7 22 0 8 -35 4 -50 -5z"/>
<path d="M335 2780 c-3 -5 -1 -10 4 -10 6 0 11 5 11 10 0 6 -2 10 -4 10 -3 0
-8 -4 -11 -10z"/>
<path d="M502 2735 c0 -16 2 -22 5 -12 2 9 2 23 0 30 -3 6 -5 -1 -5 -18z"/>
<path d="M5531 2746 c-9 -10 -9 -16 -1 -21 8 -5 6 -13 -5 -25 -11 -12 -13 -19
-5 -22 7 -2 10 -15 7 -28 -4 -25 -4 -25 -17 6 -16 37 -74 77 -111 76 -59 -2
-109 -47 -109 -98 0 -32 -1 -33 -47 -36 -42 -3 -49 -6 -57 -30 -11 -32 1 -79
23 -86 8 -3 11 0 7 6 -9 14 28 34 48 26 11 -4 16 -1 16 10 0 9 4 16 9 16 4 0
14 28 21 61 l13 61 56 -5 c59 -6 81 -23 81 -63 0 -12 7 -27 15 -34 12 -10 16
-9 21 5 5 13 9 14 15 3 5 -7 9 -17 9 -23 0 -5 -4 -4 -9 4 -7 11 -12 3 -21 -30
-18 -69 -71 -114 -86 -74 -4 8 -1 22 6 30 7 9 10 18 6 22 -3 3 -6 2 -6 -4 0
-17 -29 -24 -51 -13 -10 6 -19 20 -19 32 0 16 -3 19 -11 11 -8 -8 -8 -17 0
-31 14 -26 14 -62 1 -62 -11 0 -17 12 -22 45 -2 11 -7 23 -12 26 -12 9 -47 -1
-41 -12 3 -4 12 -6 19 -3 9 3 18 -6 25 -26 l11 -32 -49 4 c-45 3 -48 2 -39
-16 10 -18 40 -19 79 -2 12 5 20 -1 29 -23 20 -50 35 -57 80 -35 39 18 57 40
23 27 -10 -4 -14 -2 -10 4 4 6 15 13 26 16 14 3 18 1 14 -10 -5 -12 -1 -14 18
-8 13 5 31 8 39 9 8 1 17 4 20 7 3 4 23 19 45 34 33 22 36 26 16 23 -13 -1
-26 3 -28 10 -3 6 2 12 9 12 10 0 13 10 10 37 -3 24 0 40 10 47 16 12 33 90
17 81 -13 -9 -10 17 5 37 7 10 17 14 22 10 4 -4 2 1 -6 12 -8 10 -25 22 -39
28 -20 7 -28 5 -38 -8 -7 -10 -13 -13 -13 -7 0 7 7 19 16 27 14 15 14 16 -4
16 -11 0 -25 -6 -31 -14z m-6 -306 c3 -5 1 -10 -4 -10 -6 0 -11 5 -11 10 0 6
2 10 4 10 3 0 8 -4 11 -10z"/>
<path d="M422 2661 c-9 -25 -8 -29 4 -24 8 3 14 9 14 13 0 5 3 15 6 24 3 9 2
16 -4 16 -6 0 -15 -13 -20 -29z"/>
<path d="M5320 2575 c0 -11 7 -15 23 -13 12 2 22 8 22 13 0 6 -10 11 -22 13
-16 2 -23 -2 -23 -13z"/>
<path d="M5402 2581 c-10 -6 -9 -11 4 -22 13 -11 18 -11 21 -1 3 6 9 10 14 6
5 -3 9 -1 9 4 0 6 -7 13 -16 16 -19 7 -16 7 -32 -3z"/>
<path d="M1628 2545 c-14 -8 -37 -32 -50 -52 l-23 -38 -3 -996 -2 -996 21 -28
c42 -53 60 -55 414 -55 l325 0 0 -97 c0 -54 4 -104 9 -112 7 -11 27 -12 97 -7
49 4 92 10 96 12 4 3 8 50 8 105 l0 99 43 0 43 0 12 -74 c7 -40 17 -90 23
-111 l10 -37 84 4 c68 2 88 7 104 23 19 19 19 23 5 95 -18 98 -18 100 9 100
23 0 24 -3 30 -105 5 -82 11 -113 26 -139 12 -18 21 -36 21 -39 0 -3 -17 -7
-37 -9 -21 -2 102 -2 272 0 232 3 310 6 308 15 -1 7 -8 30 -16 52 -8 22 -17
81 -20 131 l-5 91 300 6 c166 4 365 7 443 7 l142 0 7 -61 c3 -34 6 -87 6 -118
l0 -56 210 0 c133 0 210 4 210 10 0 13 -148 25 -232 18 -90 -7 -118 0 -118 32
0 24 2 25 71 25 l71 0 -4 69 -3 69 67 4 c80 4 117 27 136 83 10 29 12 248 10
1015 -3 975 -3 979 -24 1007 -11 15 -36 38 -54 51 l-33 22 -1491 0 c-1280 -1
-1495 -3 -1518 -15z m82 -59 c0 -19 -17 -29 -37 -22 -12 5 -13 9 -3 21 16 19
40 19 40 1z m73 7 c9 -9 -12 -33 -29 -33 -8 0 -14 9 -14 20 0 19 28 28 43 13z
m693 -33 c8 0 14 -5 14 -11 0 -7 -10 -9 -25 -7 -14 3 -25 1 -25 -3 0 -5 5 -9
10 -9 6 0 10 -5 10 -11 0 -5 -4 -7 -10 -4 -5 3 -10 1 -10 -4 0 -14 27 -14 35
-1 4 6 11 8 16 4 17 -10 1 -20 -35 -22 -32 -2 -36 0 -36 22 0 37 11 58 27 52
8 -3 21 -6 29 -6z m318 1 c3 -4 -9 -8 -25 -9 -17 -1 -28 1 -25 6 6 10 44 13
50 3z m271 -1 c3 -5 1 -10 -6 -10 -8 0 -6 -6 4 -18 19 -21 6 -42 -24 -42 -26
0 -33 18 -15 36 18 18 21 39 4 28 -7 -4 -8 -3 -4 4 9 15 33 16 41 2z m643 3
l112 -6 0 -32 c0 -30 -3 -33 -37 -39 -21 -3 -176 -6 -344 -6 -271 0 -308 2
-313 16 -8 21 -8 59 1 67 8 9 433 9 581 0z m579 -3 l53 0 0 -35 0 -35 -135 0
-135 0 0 33 c0 19 3 37 8 41 4 5 40 5 81 2 41 -3 98 -6 128 -6z m-2330 -52
c-2 -13 -4 -5 -4 17 -1 22 1 32 4 23 2 -10 2 -28 0 -40z m668 13 c0 -27 -3
-29 -43 -29 -41 -1 -43 0 -40 26 2 21 10 28 33 32 42 8 50 4 50 -29z m285 29
c0 -5 7 -10 15 -10 18 0 20 -36 3 -46 -8 -5 -9 -1 -5 12 7 18 6 18 -8 -1 -15
-18 -16 -18 -33 -1 -12 14 -14 20 -4 23 6 3 12 11 12 19 0 8 5 14 10 14 6 0
10 -4 10 -10z m1006 -14 c8 -32 -2 -46 -31 -46 -21 0 -24 5 -23 28 2 36 6 42
28 42 12 0 22 -9 26 -24z m121 -11 c1 -30 -2 -35 -21 -35 -32 0 -36 7 -24 41
15 43 44 39 45 -6z m411 19 c10 -19 4 -54 -9 -54 -5 0 -6 8 -2 18 5 14 3 13
-10 -3 -15 -19 -17 -19 -33 -3 -16 16 -16 18 7 37 29 25 36 25 47 5z m97 5
c-3 -4 2 -9 10 -13 33 -12 11 -45 -22 -33 -13 4 -9 54 4 54 7 0 10 -4 8 -8z
m-2836 -28 c16 -28 -14 -51 -36 -28 -13 13 -14 19 -3 31 17 21 27 20 39 -3z
m81 4 c16 -20 5 -45 -20 -45 -14 0 -20 7 -20 23 0 38 18 48 40 22z m910 -5 c0
-11 -4 -20 -9 -20 -5 0 -7 9 -4 20 3 11 7 20 9 20 2 0 4 -9 4 -20z m108 -3
c-2 -13 -12 -21 -30 -23 -28 -3 -37 9 -18 21 6 4 8 10 5 14 -2 5 7 9 21 9 19
0 24 -5 22 -21z m-930 -8 c4 -19 -19 -31 -38 -19 -18 11 -4 42 17 38 10 -2 19
-10 21 -19z m788 -6 c-6 -6 -36 9 -36 18 0 5 9 4 20 -3 10 -7 18 -14 16 -15z
m-623 10 c-7 -2 -21 -2 -30 0 -10 3 -4 5 12 5 17 0 24 -2 18 -5z m2639 -55
c-9 -9 -15 -9 -24 0 -9 9 -7 12 12 12 19 0 21 -3 12 -12z m-33 -73 c16 -8 31
-22 35 -30 3 -9 6 -414 6 -899 0 -745 -2 -885 -14 -902 -12 -16 -31 -20 -138
-24 -67 -3 -127 -2 -133 3 -6 5 -2 5 8 2 29 -12 19 11 -19 45 -26 22 -40 28
-47 21 -6 -6 -16 -11 -21 -11 -6 0 -4 5 4 10 13 9 13 11 0 20 -20 13 -315 13
-362 0 -20 -6 -56 -29 -80 -50 l-42 -40 -512 0 c-282 0 -515 3 -518 8 -6 11
-74 336 -88 426 l-13 76 -100 1 c-55 1 -110 3 -123 4 -12 1 -25 -2 -29 -8 -4
-6 4 -7 21 -3 32 8 43 -11 26 -44 -6 -11 -11 -40 -12 -63 -1 -103 -26 -103
-103 -1 -48 64 -59 74 -67 60 -7 -13 -26 -301 -28 -429 l0 -28 -92 3 -93 3 -3
912 c-2 902 -2 913 18 933 20 20 32 20 1255 20 1065 0 1240 -2 1264 -15z
m-2869 -59 c0 -3 -4 -8 -10 -11 -5 -3 -10 -1 -10 4 0 6 5 11 10 11 6 0 10 -2
10 -4z m30 -16 c0 -14 -6 -20 -22 -19 -17 1 -19 2 -5 6 9 2 17 11 17 19 0 8 2
14 5 14 3 0 5 -9 5 -20z m90 3 c0 -13 3 -14 12 -5 14 14 58 16 58 3 0 -6 -5
-13 -12 -17 -7 -5 -8 -3 -3 7 7 11 6 12 -6 3 -17 -13 -129 -17 -129 -4 0 5 5
12 10 15 6 3 10 0 10 -7 0 -10 3 -9 9 1 8 13 12 13 27 0 16 -12 17 -12 11 4
-3 9 -2 17 3 17 6 0 10 -8 10 -17z m-190 -128 c0 -8 -7 -15 -15 -15 -8 0 -15
7 -15 15 0 8 7 15 15 15 8 0 15 -7 15 -15z m-67 -102 c-7 -2 -19 -2 -25 0 -7
3 -2 5 12 5 14 0 19 -2 13 -5z m184 0 c-8 -7 -157 -6 -165 2 -3 3 34 5 83 5
49 0 85 -3 82 -7z m186 0 c-29 -2 -77 -2 -105 0 -29 2 -6 3 52 3 58 0 81 -1
53 -3z m-320 -106 l72 -3 -77 -2 -78 -2 2 53 2 52 3 -47 4 -47 72 -4z m105 59
c70 -1 87 -4 87 -16 0 -12 -16 -15 -77 -17 -69 -2 -76 0 -71 15 6 15 5 15 -11
-1 -10 -10 -30 -16 -46 -15 -26 2 -27 3 -13 24 8 13 21 20 29 17 8 -3 53 -6
102 -7z m119 -62 c-3 -3 -12 -4 -19 -1 -8 3 -5 6 6 6 11 1 17 -2 13 -5z m106
-1 c-18 -2 -48 -2 -65 0 -18 2 -4 4 32 4 36 0 50 -2 33 -4z m-320 -114 c-17
-17 -37 -1 -22 17 8 10 15 12 23 4 7 -7 7 -13 -1 -21z m347 1 c0 -12 -17 -12
-45 0 -17 7 -15 9 13 9 17 1 32 -3 32 -9z m-341 -128 c-1 -15 -2 -15 -6 1 -2
9 -9 15 -14 11 -5 -3 -7 -10 -4 -15 4 -5 1 -9 -4 -9 -15 0 -14 27 2 33 17 6
27 -2 26 -21z m-18 -126 c-10 -11 -8 -15 6 -19 16 -4 16 -5 1 -6 -9 0 -20 4
-23 9 -8 12 2 30 17 30 7 0 6 -5 -1 -14z m0 -133 c-11 -5 -11 -7 0 -15 12 -8
12 -9 0 -6 -22 6 -25 28 -4 27 12 0 14 -2 4 -6z m849 -604 c11 -63 50 -317 50
-330 0 -5 -15 -9 -34 -9 -33 0 -33 1 -40 53 -12 108 -5 360 10 344 2 -2 9 -28
14 -58z m1773 -260 c-8 -8 -16 -8 -30 0 -16 9 -14 10 12 11 21 0 26 -3 18 -11z
m72 -47 c-7 -8 -35 13 -35 26 0 13 3 12 19 -4 10 -10 17 -20 16 -22z"/>
<path d="M3040 2420 c0 -5 5 -10 10 -10 6 0 10 5 10 10 0 6 -4 10 -10 10 -5 0
-10 -4 -10 -10z"/>
<path d="M4290 2420 c0 -5 6 -10 14 -10 8 0 18 5 21 10 3 6 -3 10 -14 10 -12
0 -21 -4 -21 -10z"/>
<path d="M2560 2420 c0 -23 13 -26 29 -6 9 11 8 15 -5 20 -23 9 -24 8 -24 -14z"/>
<path d="M3875 2440 c-3 -5 1 -10 9 -10 9 0 16 5 16 10 0 6 -4 10 -9 10 -6 0
-13 -4 -16 -10z"/>
<path d="M3880 2410 c-13 -8 -12 -10 3 -10 9 0 17 5 17 10 0 12 -1 12 -20 0z"/>
<path d="M3707 1742 c-15 -16 -27 -39 -27 -54 0 -67 100 -113 147 -69 14 13
20 27 16 38 -4 11 -3 14 5 9 8 -5 12 3 12 24 0 74 -100 108 -153 52z m91 -60
c9 2 16 11 16 20 -1 14 2 15 17 5 16 -10 17 -13 3 -17 -8 -3 -14 -10 -12 -15
2 -6 -18 -11 -44 -13 -45 -3 -48 -2 -48 22 0 32 20 45 21 14 1 -20 2 -20 6 -3
9 43 17 50 21 17 2 -25 8 -32 20 -30z"/>
<path d="M4392 1763 c-6 -2 -10 -9 -7 -14 4 -5 0 -6 -8 -3 -14 5 -37 -33 -37
-61 0 -28 23 -66 37 -61 8 3 11 1 8 -4 -9 -14 36 -29 68 -23 64 12 88 114 37
155 -21 17 -70 23 -98 11z m40 -50 c2 -14 9 -29 17 -31 10 -3 12 1 8 17 -3 11
-1 21 4 21 5 0 9 -8 9 -18 0 -10 7 -28 16 -41 16 -23 16 -23 -7 -10 -27 15
-57 13 -78 -4 -12 -10 -12 -9 -2 11 13 25 7 42 -15 42 -8 0 -14 8 -14 17 0 13
3 14 12 5 16 -16 28 -15 28 3 0 26 19 16 22 -12z"/>
<path d="M2539 1603 c-9 -2 -21 -15 -28 -29 -7 -17 -17 -24 -26 -20 -28 10
-45 -5 -45 -39 0 -38 17 -56 22 -24 3 25 42 36 63 19 9 -7 14 -7 17 -1 2 6 9
7 17 1 12 -7 13 -13 3 -35 -16 -34 -59 -32 -54 3 2 12 -1 22 -6 22 -15 0 -22
-40 -12 -66 8 -20 16 -24 55 -24 37 0 47 4 56 23 5 12 17 35 25 50 12 22 13
34 4 61 -15 48 -50 70 -91 59z"/>
<path d="M2668 1423 c103 -82 128 -92 120 -49 -7 33 8 55 15 24 6 -21 11 -23
51 -20 31 3 43 8 40 17 -10 24 -60 38 -154 42 -93 4 -94 4 -72 -14z"/>
<path d="M2538 1243 c6 -2 18 -2 25 0 6 3 1 5 -13 5 -14 0 -19 -2 -12 -5z"/>
<path d="M2500 1231 c0 -10 19 -25 25 -20 1 2 -3 10 -11 17 -8 7 -14 8 -14 3z"/>
<path d="M3411 678 c-13 -7 -33 -25 -44 -40 -17 -23 -19 -34 -11 -65 6 -26 15
-38 26 -37 10 1 16 -3 15 -10 -1 -6 15 -12 37 -14 54 -5 86 26 86 84 0 69 -55
110 -109 82z m-7 -23 c-4 -8 -11 -15 -16 -15 -6 0 -5 6 2 15 7 8 14 15 16 15
2 0 1 -7 -2 -15z m76 -52 c0 -14 2 -15 9 -4 6 9 11 10 15 2 4 -6 2 -12 -3 -12
-6 -1 -17 -2 -23 -3 -7 -1 -12 -8 -10 -15 1 -7 -2 -10 -9 -5 -24 14 -63 12
-76 -4 -7 -9 -13 -12 -12 -7 1 6 0 12 -1 15 -7 19 -7 39 1 34 5 -3 7 -10 4
-15 -11 -16 7 -9 21 9 11 14 16 15 34 4 17 -10 21 -10 26 3 8 21 24 19 24 -2z
m-51 -61 c7 -13 6 -19 -2 -19 -7 0 -13 9 -13 19 0 10 1 18 3 18 1 0 7 -8 12
-18z"/>
<path d="M1685 1770 c-3 -5 -1 -10 4 -10 6 0 11 5 11 10 0 6 -2 10 -4 10 -3 0
-8 -4 -11 -10z"/>
<path d="M5640 2550 c0 -5 5 -10 10 -10 6 0 10 5 10 10 0 6 -4 10 -10 10 -5 0
-10 -4 -10 -10z"/>
<path d="M5366 2498 c3 -4 11 -5 19 -1 21 7 19 12 -4 10 -11 0 -18 -5 -15 -9z"/>
<path d="M444 2462 c3 -5 0 -25 -6 -44 -9 -29 -8 -40 6 -59 9 -13 16 -18 16
-12 0 7 -4 14 -9 18 -6 3 -6 18 0 38 12 42 11 67 -2 67 -5 0 -8 -4 -5 -8z"/>
<path d="M370 2440 c0 -11 2 -20 4 -20 2 0 6 9 9 20 3 11 1 20 -4 20 -5 0 -9
-9 -9 -20z"/>
<path d="M5380 2330 c-12 -8 -9 -10 13 -10 15 0 27 5 27 10 0 13 -20 13 -40 0z"/>
<path d="M780 2190 c0 -5 5 -10 11 -10 5 0 7 5 4 10 -3 6 -8 10 -11 10 -2 0
-4 -4 -4 -10z"/>
<path d="M915 2190 c3 -5 8 -10 11 -10 2 0 4 5 4 10 0 6 -5 10 -11 10 -5 0 -7
-4 -4 -10z"/>
<path d="M4943 1872 c-43 -6 -48 -25 -51 -212 -3 -157 -2 -178 14 -191 13 -11
66 -15 236 -19 l218 -5 -24 -35 c-14 -19 -31 -59 -40 -87 l-15 -53 132 0 c73
0 170 -3 216 -7 l84 -6 -7 39 c-11 61 -64 161 -112 212 l-44 46 0 153 0 153
-27 11 c-25 10 -514 10 -580 1z m526 -108 c2 -2 -104 -4 -237 -4 -144 0 -242
4 -242 9 0 9 469 3 479 -5z m-116 -61 c-68 -2 -178 -2 -245 0 -68 1 -13 3 122
3 135 0 190 -2 123 -3z m0 -60 c-68 -2 -178 -2 -245 0 -68 1 -13 3 122 3 135
0 190 -2 123 -3z m-3 -62 c72 -7 50 -8 -137 -10 -123 0 -223 2 -223 7 0 10
261 13 360 3z"/>
<path d="M1351 1594 c0 -11 3 -14 6 -6 3 7 2 16 -1 19 -3 4 -6 -2 -5 -13z"/>
<path d="M1157 1177 c2 -54 8 -128 13 -165 11 -78 25 -339 18 -332 -3 3 -20
40 -38 83 -18 43 -34 77 -36 75 -1 -2 12 -42 31 -88 19 -47 35 -97 35 -112 0
-27 -2 -28 -56 -28 l-56 0 6 38 c4 25 3 31 -3 17 -8 -18 -9 -17 -16 10 -4 17
-11 46 -16 65 -5 20 -9 57 -10 82 -1 26 -6 53 -11 60 -6 8 -8 -8 -5 -45 6 -67
-2 -66 -43 6 -16 29 -30 48 -30 42 0 -14 37 -75 62 -102 18 -20 47 -114 48
-154 0 -13 -15 -18 -70 -23 l-70 -7 0 -55 0 -54 143 -1 c78 -1 169 -2 202 -3
l60 -1 -4 -139 c-4 -180 -22 -239 -73 -249 -13 -2 12 -5 54 -6 72 -1 79 1 93
23 19 28 31 106 40 263 7 104 9 112 29 115 18 3 21 11 24 55 l3 51 -86 7 c-76
7 -85 10 -85 27 0 11 8 32 19 46 35 51 71 112 66 112 -3 0 -21 -25 -41 -56
-20 -31 -37 -54 -40 -52 -8 9 19 184 32 210 7 14 26 36 40 47 15 12 23 21 18
21 -4 0 -21 -12 -37 -27 l-29 -28 7 30 c16 68 47 171 56 179 5 6 9 15 9 20 0
6 -9 -2 -19 -19 -26 -40 -66 -206 -82 -335 -7 -58 -13 -114 -15 -125 -1 -11
-3 -26 -3 -32 -1 -9 -17 -13 -46 -13 l-45 0 0 53 c0 49 12 144 25 190 5 20 4
19 -8 -2 -13 -22 -15 -17 -27 78 l-12 102 26 39 c35 53 34 65 -1 16 l-28 -39
-3 48 c-2 26 2 61 7 78 6 16 11 37 10 46 -1 9 -4 5 -8 -9 -7 -23 -9 -21 -18
20 -8 38 -9 30 -6 -53z"/>
<path d="M1370 1156 c0 -8 4 -17 8 -20 4 -2 8 4 8 15 0 10 -4 19 -8 19 -4 0
-8 -6 -8 -14z"/>
<path d="M5129 1083 l-237 -3 -1 -495 -2 -495 312 0 c234 1 309 4 300 13 -27
27 -109 37 -309 36 -112 -1 -206 2 -209 5 -4 4 -9 72 -11 153 -3 138 -5 149
-28 176 -20 24 -24 39 -24 92 0 35 5 67 10 70 6 4 8 10 5 15 -3 5 4 11 15 15
19 6 20 15 20 175 0 93 3 175 6 184 5 14 43 16 315 16 293 0 309 1 318 19 15
27 -3 31 -132 29 -62 -2 -218 -4 -348 -5z m-214 -413 c3 -5 1 -10 -4 -10 -6 0
-11 5 -11 10 0 6 2 10 4 10 3 0 8 -4 11 -10z m45 -254 c0 -59 -18 -62 -21 -3
-3 43 -1 53 9 45 6 -6 12 -25 12 -42z m153 -313 c-7 -2 -19 -2 -25 0 -7 3 -2
5 12 5 14 0 19 -2 13 -5z m170 0 c-18 -2 -48 -2 -65 0 -18 2 -4 4 32 4 36 0
50 -2 33 -4z m185 0 c-10 -2 -26 -2 -35 0 -10 3 -2 5 17 5 19 0 27 -2 18 -5z"/>
<path d="M963 1038 c1 -15 7 -30 14 -33 10 -3 11 0 5 13 -5 9 -12 24 -15 32
-3 8 -5 3 -4 -12z"/>
<path d="M1306 1035 c4 -8 8 -15 10 -15 2 0 4 7 4 15 0 8 -4 15 -10 15 -5 0
-7 -7 -4 -15z"/>
<path d="M1130 990 c12 -16 24 -30 26 -30 3 0 -4 14 -16 30 -12 17 -24 30 -26
30 -3 0 4 -13 16 -30z"/>
<path d="M1321 994 c0 -11 3 -14 6 -6 3 7 2 16 -1 19 -3 4 -6 -2 -5 -13z"/>
<path d="M991 952 c0 -13 6 -30 14 -38 16 -16 22 -5 6 12 -5 5 -11 18 -14 29
-4 18 -5 17 -6 -3z"/>
<path d="M1301 940 c14 -31 19 -36 19 -24 0 6 -7 19 -16 30 -14 18 -14 18 -3
-6z"/>
<path d="M1222 920 c0 -14 2 -19 5 -12 2 6 2 18 0 25 -3 6 -5 1 -5 -13z"/>
<path d="M6021 858 c-20 -32 13 -54 37 -25 8 10 7 17 -7 29 -16 14 -19 13 -30
-4z"/>
<path d="M1237 783 c-10 -10 -8 -25 2 -18 5 3 12 -3 14 -12 3 -11 5 -8 6 10 1
26 -8 34 -22 20z"/>
<path d="M1083 763 c-4 -10 -11 -21 -17 -25 -7 -5 -5 -13 6 -24 16 -16 17 -16
16 2 -1 10 2 29 6 42 9 26 -2 30 -11 5z"/>
<path d="M1261 720 c0 -8 4 -22 9 -30 12 -18 12 -2 0 25 -6 13 -9 15 -9 5z"/>
<path d="M5723 639 c-8 -8 -8 -22 -1 -47 24 -88 -16 -204 -98 -282 -43 -41
-54 -58 -54 -83 0 -18 -4 -47 -9 -65 -8 -26 -7 -34 5 -39 25 -9 44 17 44 63 0
39 6 50 59 109 70 77 101 148 101 234 0 57 -15 121 -29 121 -4 0 -12 -5 -18
-11z"/>
<path d="M5402 554 c-14 -9 -21 -22 -18 -31 3 -8 1 -11 -4 -8 -18 11 -10 -59
10 -92 21 -35 38 -46 20 -14 -15 28 -12 101 4 134 17 32 17 32 -12 11z"/>
<path d="M6021 403 c-26 -17 -27 -32 -3 -49 14 -11 15 -16 4 -34 -17 -28 -7
-40 33 -40 38 0 49 17 27 43 -13 14 -13 21 -2 41 7 13 10 28 6 34 -10 17 -44
20 -65 5z"/>
<path d="M483 373 c9 -2 23 -2 30 0 6 3 -1 5 -18 5 -16 0 -22 -2 -12 -5z"/>
<path d="M623 373 c54 -2 139 -2 190 0 51 1 7 3 -98 3 -104 0 -146 -2 -92 -3z"/>
<path d="M5145 360 c10 -11 20 -20 23 -20 3 0 -3 9 -13 20 -10 11 -20 20 -23
20 -3 0 3 -9 13 -20z"/>
<path d="M1641 191 c-23 -23 -28 -70 -9 -89 7 -7 39 -12 75 -12 l64 0 -3 58
-3 57 -52 3 c-42 2 -56 -1 -72 -17z"/>
<path d="M1821 149 c1 -41 4 -58 10 -48 12 19 12 96 0 104 -6 3 -10 -20 -10
-56z"/>
<path d="M1898 159 c3 -37 1 -54 -9 -60 -9 -5 14 -9 62 -9 83 0 109 14 109 59
0 51 -15 61 -94 61 l-73 0 5 -51z"/>
<path d="M2063 93 c9 -2 25 -2 35 0 9 3 1 5 -18 5 -19 0 -27 -2 -17 -5z"/>
<path d="M118 83 c18 -2 45 -2 60 0 15 2 0 4 -33 4 -33 0 -45 -2 -27 -4z"/>
<path d="M2773 83 c9 -2 25 -2 35 0 9 3 1 5 -18 5 -19 0 -27 -2 -17 -5z"/>
<path d="M3778 83 c6 -2 18 -2 25 0 6 3 1 5 -13 5 -14 0 -19 -2 -12 -5z"/>
<path d="M5868 83 c79 -2 205 -2 280 0 75 1 11 3 -143 3 -154 0 -216 -2 -137
-3z"/>
</g>
</svg>
